<svg id="Layer_1" data-name="Layer 1" xmlns="http://www.w3.org/2000/svg" viewBox="0 0 70.86 44.23"><defs><style>.cls-1{fill:#dd3b21;}.cls-2{fill:#3e74b7;}.cls-3{fill:#eac8a6;}</style></defs><path class="cls-1" d="M69,6.37a13,13,0,0,0-4.87-4.75,12.34,12.34,0,0,0-6-1.62,12.47,12.47,0,0,0-6.2,1.67A14,14,0,0,0,47,6.43,13.39,13.39,0,0,0,45,13.76v30.3c0,.06,0,.11,0,.17H70.86V14.31A15.08,15.08,0,0,0,69,6.37Z"/><path class="cls-1" d="M37.64,44V14.31a15.08,15.08,0,0,0-1.91-7.94,12.86,12.86,0,0,0-4.86-4.75A12.37,12.37,0,0,0,25,0a12.67,12.67,0,0,0-5.9,1.52l.47.27a13.82,13.82,0,0,1,4.64,4.92A14.29,14.29,0,0,1,26,13.86V44.23H37.66A1.37,1.37,0,0,1,37.64,44Z"/><path class="cls-2" d="M11.81,14.31a14.53,14.53,0,0,1,2-7.77,13.49,13.49,0,0,1,5-4.87l.3-.15A11.65,11.65,0,0,0,13.2,0,12.83,12.83,0,0,0,6.93,1.67,13.47,13.47,0,0,0,2,6.54a14.53,14.53,0,0,0-2,7.77V44.23H11.8a2.72,2.72,0,0,0,0-.28Z"/><path class="cls-3" d="M26,13.86a14.29,14.29,0,0,0-1.79-7.15,13.82,13.82,0,0,0-4.64-4.92l-.47-.27-.3.15a13.49,13.49,0,0,0-5,4.87,14.53,14.53,0,0,0-2,7.77V44a2.72,2.72,0,0,1,0,.28H26V13.86Z"/></svg>