<svg id="Layer_1" data-name="Layer 1" xmlns="http://www.w3.org/2000/svg" viewBox="0 0 50.78 92.09"><defs><style>.cls-1{fill:#dd3b21;}.cls-2{fill:#3e74b7;}.cls-3{fill:#eac8a6;}</style></defs><path class="cls-1" d="M43.46,79.17a14.81,14.81,0,0,0,5.46-5.58,13.89,13.89,0,0,0-.06-14,16,16,0,0,0-5.46-5.66A15.33,15.33,0,0,0,35,51.7H0V81.35H34.35A17.24,17.24,0,0,0,43.46,79.17Z"/><path class="cls-1" d="M.32,43.21h34A17.24,17.24,0,0,0,43.46,41a14.77,14.77,0,0,0,5.46-5.59,14.35,14.35,0,0,0,1.86-6.79A14.73,14.73,0,0,0,49,21.87c-.11.18-.2.36-.31.54a15.92,15.92,0,0,1-5.65,5.33,16.38,16.38,0,0,1-8.22,2.05H0V43.23Z"/><path class="cls-2" d="M34.35,13.56a16.74,16.74,0,0,1,8.92,2.25,15.53,15.53,0,0,1,5.59,5.72c.06.11.11.23.18.34a13.46,13.46,0,0,0,1.74-6.72A14.65,14.65,0,0,0,48.86,8a15.58,15.58,0,0,0-5.59-5.71A16.74,16.74,0,0,0,34.35,0H0V13.54a1.72,1.72,0,0,0,.32,0Z"/><path class="cls-3" d="M34.86,29.79a16.38,16.38,0,0,0,8.22-2.05,15.92,15.92,0,0,0,5.65-5.33c.11-.18.2-.36.31-.54-.07-.11-.12-.23-.18-.34a15.53,15.53,0,0,0-5.59-5.72,16.74,16.74,0,0,0-8.92-2.25H.32a1.72,1.72,0,0,1-.32,0V29.8H34.86Z"/><path class="cls-2" d="M1.84,92.16a1.69,1.69,0,0,1-.91-.27,2.07,2.07,0,0,1-.68-.73,2,2,0,0,1-.25-1V89.07a1.93,1.93,0,0,1,.25-1,2,2,0,0,1,.68-.7,1.74,1.74,0,0,1,.94-.27,1.38,1.38,0,0,1,.85.25,1.66,1.66,0,0,1,.52.54V84.44a.22.22,0,0,1,.1-.2.48.48,0,0,1,.24-.06.43.43,0,0,1,.24.06.24.24,0,0,1,.09.2v7.38a.26.26,0,0,1-.09.19.36.36,0,0,1-.24.08A.35.35,0,0,1,3.36,92a.24.24,0,0,1-.1-.19v-.46a1.34,1.34,0,0,1-.55.56A1.63,1.63,0,0,1,1.84,92.16ZM2,91.54a1.14,1.14,0,0,0,.66-.19,1.58,1.58,0,0,0,.45-.44.77.77,0,0,0,.17-.4V89.07a1.32,1.32,0,0,0-.19-.71,1.15,1.15,0,0,0-.48-.45,1.19,1.19,0,0,0-.6-.17,1.13,1.13,0,0,0-.64.2,1.38,1.38,0,0,0-.47.49,1.21,1.21,0,0,0-.18.64v1.12a1.31,1.31,0,0,0,.18.66,1.5,1.5,0,0,0,.47.5A1.09,1.09,0,0,0,2,91.54Z"/><path class="cls-2" d="M6.3,92.16a1.53,1.53,0,0,1-1-.33,1.25,1.25,0,0,1-.41-1,1.18,1.18,0,0,1,.3-.87A1.68,1.68,0,0,1,6,89.49a5.92,5.92,0,0,1,1.26-.12h.53v-.24a1.88,1.88,0,0,0-.12-.66,1.24,1.24,0,0,0-.38-.54,1.09,1.09,0,0,0-.72-.22,1.71,1.71,0,0,0-.56.08,1.15,1.15,0,0,0-.35.15.4.4,0,0,1-.2.07.22.22,0,0,1-.2-.12.38.38,0,0,1-.08-.23c0-.1.07-.18.22-.26A2,2,0,0,1,6,87.2a2.89,2.89,0,0,1,.65-.08,1.89,1.89,0,0,1,1.1.29,1.53,1.53,0,0,1,.59.74,2.62,2.62,0,0,1,.19,1v2.7a.23.23,0,0,1-.09.19A.38.38,0,0,1,8,92a.22.22,0,0,1-.1-.19v-.46a2.68,2.68,0,0,1-.64.56A1.69,1.69,0,0,1,6.3,92.16Zm.16-.57a1.41,1.41,0,0,0,.66-.17A1.94,1.94,0,0,0,7.63,91a.82.82,0,0,0,.2-.49v-.66H7.4a6.23,6.23,0,0,0-.89.06,1.53,1.53,0,0,0-.69.24.69.69,0,0,0-.26.59.81.81,0,0,0,.26.66A1.06,1.06,0,0,0,6.46,91.59Z"/><path class="cls-2" d="M10.08,92.09A.36.36,0,0,1,9.85,92a.24.24,0,0,1-.1-.19V87.44a.22.22,0,0,1,.1-.19.41.41,0,0,1,.46,0,.23.23,0,0,1,.09.19V88a1.64,1.64,0,0,1,.78-.71,1.51,1.51,0,0,1,.61-.12h.37a.23.23,0,0,1,.19.1.32.32,0,0,1,.08.21.36.36,0,0,1-.08.23.24.24,0,0,1-.19.08h-.37a1.38,1.38,0,0,0-.66.19,1.49,1.49,0,0,0-.51.52,1.57,1.57,0,0,0-.2.81v2.56a.26.26,0,0,1-.09.19A.41.41,0,0,1,10.08,92.09Z"/><path class="cls-2" d="M13.5,92.09a.38.38,0,0,1-.23-.08.28.28,0,0,1-.1-.19V87.44a.24.24,0,0,1,.1-.19.45.45,0,0,1,.23-.07.42.42,0,0,1,.23.07.24.24,0,0,1,.1.19v.47a1.66,1.66,0,0,1,.52-.54,1.41,1.41,0,0,1,.86-.25,1.49,1.49,0,0,1,.9.29,1.92,1.92,0,0,1,.57.75,1.85,1.85,0,0,1,.7-.78,1.69,1.69,0,0,1,2.37.63A2.16,2.16,0,0,1,20,89.07v2.75a.28.28,0,0,1-.1.19.4.4,0,0,1-.48,0,.28.28,0,0,1-.1-.19V89.07a1.43,1.43,0,0,0-.17-.73,1.29,1.29,0,0,0-.45-.45,1.11,1.11,0,0,0-1.13,0,1.21,1.21,0,0,0-.46.44,1.25,1.25,0,0,0-.18.68v2.81a.22.22,0,0,1-.11.2.48.48,0,0,1-.24.06.46.46,0,0,1-.22-.06.22.22,0,0,1-.11-.2V89a1.29,1.29,0,0,0-.16-.66,1.27,1.27,0,0,0-.43-.46,1.1,1.1,0,0,0-.59-.17,1.24,1.24,0,0,0-.58.16,1.17,1.17,0,0,0-.46.45,1.37,1.37,0,0,0-.18.72v2.75a.28.28,0,0,1-.1.19A.41.41,0,0,1,13.5,92.09Z"/><path class="cls-2" d="M23.34,92.16a1.58,1.58,0,0,1-.87-.24,1.34,1.34,0,0,1-.55-.56v.46a.24.24,0,0,1-.1.19.35.35,0,0,1-.22.08.41.41,0,0,1-.24-.08.28.28,0,0,1-.1-.19V84.44a.25.25,0,0,1,.1-.2.51.51,0,0,1,.48,0,.25.25,0,0,1,.1.2v3.47a1.66,1.66,0,0,1,.52-.54,1.41,1.41,0,0,1,.86-.25,1.71,1.71,0,0,1,.93.27,2,2,0,0,1,.67.7,1.93,1.93,0,0,1,.25,1v1.12a2,2,0,0,1-.25,1,2,2,0,0,1-.67.73A1.64,1.64,0,0,1,23.34,92.16Zm-.13-.62a1.15,1.15,0,0,0,.65-.19,1.57,1.57,0,0,0,.46-.5,1.31,1.31,0,0,0,.18-.66V89.07a1.21,1.21,0,0,0-.18-.64,1.44,1.44,0,0,0-.46-.49,1.17,1.17,0,0,0-1.26,0,1.29,1.29,0,0,0-.48.45,1.31,1.31,0,0,0-.18.71v1.44a.69.69,0,0,0,.17.4,1.62,1.62,0,0,0,.46.44A1.12,1.12,0,0,0,23.21,91.54Z"/><path class="cls-2" d="M28.21,92.16a1.92,1.92,0,0,1-1-.27,2,2,0,0,1-.71-.72,1.84,1.84,0,0,1-.27-1V87.45a.24.24,0,0,1,.11-.18.32.32,0,0,1,.23-.09.36.36,0,0,1,.24.09.26.26,0,0,1,.1.18v2.76a1.24,1.24,0,0,0,.17.65,1.57,1.57,0,0,0,.47.49,1.24,1.24,0,0,0,1.32,0,1.36,1.36,0,0,0,.46-.49,1.34,1.34,0,0,0,.17-.65V87.44a.21.21,0,0,1,.1-.18.41.41,0,0,1,.24-.08.35.35,0,0,1,.24.08.23.23,0,0,1,.09.18v2.77a1.93,1.93,0,0,1-.26,1,2,2,0,0,1-.72.71A1.85,1.85,0,0,1,28.21,92.16Z"/><path class="cls-2" d="M31.84,92.09a.36.36,0,0,1-.23-.08.24.24,0,0,1-.1-.19V84.44a.22.22,0,0,1,.1-.2.41.41,0,0,1,.23-.06.49.49,0,0,1,.25.06.24.24,0,0,1,.09.2v7.38a.26.26,0,0,1-.09.19A.41.41,0,0,1,31.84,92.09Z"/><path class="cls-2" d="M34.66,92.16a1.56,1.56,0,0,1-1-.33,1.28,1.28,0,0,1-.41-1,1.14,1.14,0,0,1,.31-.87,1.64,1.64,0,0,1,.85-.43,5.86,5.86,0,0,1,1.26-.12h.53v-.24a1.88,1.88,0,0,0-.12-.66,1.24,1.24,0,0,0-.38-.54,1.1,1.1,0,0,0-.73-.22,1.79,1.79,0,0,0-.56.08,1.2,1.2,0,0,0-.34.15.4.4,0,0,1-.2.07.24.24,0,0,1-.21-.12.46.46,0,0,1-.08-.23c0-.1.08-.18.22-.26a2.19,2.19,0,0,1,.55-.2,2.89,2.89,0,0,1,.65-.08,1.89,1.89,0,0,1,1.1.29,1.59,1.59,0,0,1,.59.74,2.61,2.61,0,0,1,.18,1v2.7a.23.23,0,0,1-.09.19.37.37,0,0,1-.46,0,.22.22,0,0,1-.1-.19v-.46a2.68,2.68,0,0,1-.64.56A1.7,1.7,0,0,1,34.66,92.16Zm.17-.57a1.34,1.34,0,0,0,.65-.17A1.84,1.84,0,0,0,36,91a.82.82,0,0,0,.2-.49v-.66h-.44a6.19,6.19,0,0,0-.88.06,1.53,1.53,0,0,0-.69.24.69.69,0,0,0-.26.59.81.81,0,0,0,.26.66A1.06,1.06,0,0,0,34.83,91.59Z"/><path class="cls-2" d="M38.45,92.09a.36.36,0,0,1-.23-.08.24.24,0,0,1-.1-.19V87.44a.22.22,0,0,1,.1-.19.41.41,0,0,1,.46,0,.23.23,0,0,1,.09.19v.47a1.56,1.56,0,0,1,.52-.54,1.44,1.44,0,0,1,.87-.25,1.68,1.68,0,0,1,.92.27,2,2,0,0,1,.67.7,2,2,0,0,1,.25,1v2.75a.22.22,0,0,1-.11.2.4.4,0,0,1-.24.07.38.38,0,0,1-.22-.07.22.22,0,0,1-.11-.2V89.07a1.3,1.3,0,0,0-.17-.64,1.47,1.47,0,0,0-.47-.49,1.13,1.13,0,0,0-.64-.2,1.32,1.32,0,0,0-1.07.62,1.31,1.31,0,0,0-.18.71v2.75a.24.24,0,0,1-.1.19A.36.36,0,0,1,38.45,92.09Z"/><path class="cls-2" d="M43.12,92.09a.26.26,0,0,1-.2-.08.28.28,0,0,1-.07-.19.31.31,0,0,1,0-.13.54.54,0,0,1,.07-.13l2.53-3.77H43.2A.23.23,0,0,1,43,87.7a.32.32,0,0,1-.08-.21.33.33,0,0,1,.08-.22.23.23,0,0,1,.18-.09h2.92a.3.3,0,0,1,.2.08.25.25,0,0,1,.07.19.43.43,0,0,1-.09.26l-2.54,3.78h2.5a.23.23,0,0,1,.19.09.38.38,0,0,1,.07.22.35.35,0,0,1-.07.2.23.23,0,0,1-.19.09Z"/><path class="cls-2" d="M48.9,88.42a1.85,1.85,0,0,1-.64-.12,2,2,0,0,1-.6-.36,1.72,1.72,0,0,1-.43-.61,2.1,2.1,0,0,1-.16-.86,2,2,0,0,1,.17-.88,1.65,1.65,0,0,1,.45-.61,1.89,1.89,0,0,1,.61-.36,1.66,1.66,0,0,1,.64-.13,1.63,1.63,0,0,1,.64.13,1.85,1.85,0,0,1,.6.36,1.74,1.74,0,0,1,.44.61,2.24,2.24,0,0,1,.16.86,2.16,2.16,0,0,1-.17.88,1.84,1.84,0,0,1-1.06,1A1.91,1.91,0,0,1,48.9,88.42Zm0-.26a1.55,1.55,0,0,0,.84-.22,1.57,1.57,0,0,0,.57-.6,2,2,0,0,0,.2-.89,1.86,1.86,0,0,0-.19-.87,1.39,1.39,0,0,0-.55-.6,1.49,1.49,0,0,0-.83-.22,1.54,1.54,0,0,0-.83.22,1.38,1.38,0,0,0-.57.6,1.83,1.83,0,0,0-.21.89,1.92,1.92,0,0,0,.2.87,1.39,1.39,0,0,0,.55.6A1.48,1.48,0,0,0,48.9,88.16Zm.57-.56a.09.09,0,0,1-.07,0,.56.56,0,0,1,0-.08l-.42-.93h-.3v.93a.1.1,0,0,1,0,.08.17.17,0,0,1-.1,0,.19.19,0,0,1-.1,0s0,0,0-.08V85.35a.14.14,0,0,1,0-.06.13.13,0,0,1,.07,0H49a.79.79,0,0,1,.32.06.55.55,0,0,1,.23.2.75.75,0,0,1,.09.39.77.77,0,0,1-.11.44.6.6,0,0,1-.3.19l.4.88a.08.08,0,0,1,0,0,.11.11,0,0,1,0,.1A.12.12,0,0,1,49.47,87.6Zm-.84-1.27H49a.36.36,0,0,0,.27-.1.42.42,0,0,0,.1-.31.45.45,0,0,0-.1-.32.4.4,0,0,0-.27-.09h-.35Z"/></svg>