<svg id="Layer_1" data-name="Layer 1" xmlns="http://www.w3.org/2000/svg" viewBox="0 0 50.78 81.35"><defs><style>.cls-1{fill:#dd3b21;}.cls-2{fill:#3e74b7;}.cls-3{fill:#eac8a6;}</style></defs><path class="cls-1" d="M43.46,79.17a14.81,14.81,0,0,0,5.46-5.58,13.89,13.89,0,0,0-.06-14,16,16,0,0,0-5.46-5.66A15.33,15.33,0,0,0,35,51.7H0V81.35H34.35A17.24,17.24,0,0,0,43.46,79.17Z"/><path class="cls-1" d="M.32,43.21h34A17.24,17.24,0,0,0,43.46,41a14.77,14.77,0,0,0,5.46-5.59,14.35,14.35,0,0,0,1.86-6.79A14.73,14.73,0,0,0,49,21.87c-.11.18-.2.36-.31.54a15.92,15.92,0,0,1-5.65,5.33,16.38,16.38,0,0,1-8.22,2.05H0V43.23Z"/><path class="cls-2" d="M34.35,13.56a16.74,16.74,0,0,1,8.92,2.25,15.53,15.53,0,0,1,5.59,5.72c.06.11.11.23.18.34a13.46,13.46,0,0,0,1.74-6.72A14.65,14.65,0,0,0,48.86,8a15.58,15.58,0,0,0-5.59-5.71A16.74,16.74,0,0,0,34.35,0H0V13.54a1.72,1.72,0,0,0,.32,0Z"/><path class="cls-3" d="M34.86,29.79a16.38,16.38,0,0,0,8.22-2.05,15.92,15.92,0,0,0,5.65-5.33c.11-.18.2-.36.31-.54-.07-.11-.12-.23-.18-.34a15.53,15.53,0,0,0-5.59-5.72,16.74,16.74,0,0,0-8.92-2.25H.32a1.72,1.72,0,0,1-.32,0V29.8H34.86Z"/></svg>